<svg xmlns="http://www.w3.org/2000/svg" viewBox="0 0 181.44 171.59"><defs><style>.cls-1{fill:#e535ab;fill-rule:evenodd;}.cls-2{fill:#39c1d7;}.cls-3{fill:#fff;}</style></defs><g id="Layer_2" data-name="Layer 2"><g id="Layer_2-2" data-name="Layer 2"><path class="cls-1" d="M142.81,12.31,164.9,25.07a9.85,9.85,0,0,1,2.18-1.72A9.58,9.58,0,0,1,176.65,40a9.86,9.86,0,0,1-2.55,1V66.49a9.3,9.3,0,0,1,2.52,1,9.58,9.58,0,1,1-11.94,14.68l-22,12.67a9.45,9.45,0,0,1,.48,3,9.58,9.58,0,1,1-19.15,0,9.7,9.7,0,0,1,.39-2.71L102.35,82.41a9.73,9.73,0,0,1-2.14,1.69,9.58,9.58,0,1,1-9.58-16.6,9.24,9.24,0,0,1,2.53-1V41a9.79,9.79,0,0,1-2.56-1,9.58,9.58,0,1,1,9.58-16.6,9.41,9.41,0,0,1,2.16,1.71l22.1-12.76a9.67,9.67,0,0,1-.39-2.72,9.58,9.58,0,1,1,19.15,0,9.43,9.43,0,0,1-.39,2.73Zm-2.3,3.93L162.65,29a9.55,9.55,0,0,0,6.9,11.91V66.5l-.38.1L140.25,16.5c.09-.08.17-.17.26-.26Zm-13.5.27L98.09,66.6l-.38-.1V40.94A9.56,9.56,0,0,0,104.6,29l22.14-12.79a3.44,3.44,0,0,0,.27.27Zm9.29,2.26,28.92,50.09A9.45,9.45,0,0,0,163.54,71a9.24,9.24,0,0,0-1,2.53h-57.8a9.91,9.91,0,0,0-1-2.53A9.68,9.68,0,0,0,102,68.87L131,18.78a9.67,9.67,0,0,0,2.67.37A9.42,9.42,0,0,0,136.3,18.77Zm4.41,72.65,22-12.7c-.06-.21-.12-.42-.17-.63H104.72l-.1.37,22.11,12.77a9.59,9.59,0,0,1,14,.19Z"/><circle class="cls-2" cx="62.13" cy="70.24" r="11.3"/><path class="cls-2" d="M124.26,70.24c0-8.67-10.44-16.18-26.65-20.65,4.16-16.29,2.88-29.11-4.56-33.45-2.94-1.72-6.51-2-10.59-.94-6.17,1.65-13.23,6.47-20.33,13.56C55,21.67,48,16.85,41.81,15.2c-4.09-1.09-7.65-.78-10.59.94-7.45,4.34-8.73,17.15-4.56,33.45C10.45,54.06,0,61.57,0,70.24S10.45,86.43,26.66,90.9c-4.17,16.29-2.89,29.1,4.56,33.45a11.68,11.68,0,0,0,6.06,1.57,17.75,17.75,0,0,0,4.53-.63C48,123.63,55,118.81,62.13,111.73c7.1,7.08,14.16,11.9,20.33,13.56a17.74,17.74,0,0,0,4.52.63,11.84,11.84,0,0,0,6.07-1.57c7.44-4.35,8.72-17.16,4.56-33.45C113.82,86.43,124.26,78.92,124.26,70.24ZM83.71,19.88A12.75,12.75,0,0,1,87,19.41a7,7,0,0,1,3.64.91c5,2.91,6,13.58,2.3,28.09a130.35,130.35,0,0,0-16.65-2.55,130.86,130.86,0,0,0-10.76-13.6C72,25.76,78.34,21.32,83.71,19.88ZM79.49,80.41c-1.9,3.33-3.91,6.53-6,9.58-3.65.28-7.45.43-11.4.43s-7.75-.15-11.39-.43c-2.06-3-4.06-6.25-6-9.58S41,73.57,39.46,70.24q2.37-5,5.32-10.16c1.9-3.34,3.9-6.53,6-9.59,3.64-.27,7.45-.42,11.39-.42s7.75.15,11.4.42c2,3.06,4,6.25,6,9.59s3.73,6.84,5.31,10.16C83.22,73.57,81.46,77,79.49,80.41ZM87.38,76c1.68,4,3.07,7.8,4.19,11.43-3.67.82-7.63,1.5-11.87,2,1.36-2.14,2.7-4.33,4-6.59S86.22,78.23,87.38,76ZM62.13,104.71c-2.64-2.92-5.27-6.15-7.85-9.65,2.57.12,5.19.2,7.85.2s5.28-.08,7.85-.2A122.73,122.73,0,0,1,62.13,104.71ZM44.56,89.4c-4.23-.51-8.2-1.19-11.87-2,1.13-3.63,2.51-7.46,4.19-11.43,1.16,2.27,2.38,4.56,3.69,6.85S43.2,87.26,44.56,89.4ZM36.89,64.52c-1.68-4-3.07-7.79-4.2-11.43,3.68-.82,7.64-1.5,11.87-2-1.36,2.14-2.69,4.33-4,6.6S38,62.25,36.89,64.52ZM62.13,35.78A122.73,122.73,0,0,1,70,45.43c-2.57-.13-5.18-.2-7.85-.2s-5.28.07-7.85.2C56.86,41.93,59.49,38.7,62.13,35.78Zm21.56,21.9c-1.29-2.27-2.63-4.45-4-6.59a117.69,117.69,0,0,1,11.87,2,119.81,119.81,0,0,1-4.19,11.43C86.22,62.25,85,60,83.69,57.68Zm-50-37.36a7.05,7.05,0,0,1,3.64-.91,12.82,12.82,0,0,1,3.26.47c5.37,1.44,11.73,5.88,18.22,12.37A132.13,132.13,0,0,0,48,45.86a128.44,128.44,0,0,0-16.64,2.55C27.65,33.9,28.67,23.23,33.66,20.32ZM4.84,70.24c0-5.8,8.72-12,23.14-16a128.82,128.82,0,0,0,6.14,16,128.82,128.82,0,0,0-6.14,16C13.56,82.25,4.84,76.05,4.84,70.24Zm35.72,50.37c-2.8.74-5.12.6-6.9-.44-5-2.91-6-13.59-2.29-28.1A128.39,128.39,0,0,0,48,94.63a132.21,132.21,0,0,0,10.76,13.6C52.29,114.73,45.93,119.17,40.56,120.61Zm50-.44c-1.78,1-4.09,1.19-6.89.44-5.37-1.44-11.74-5.88-18.22-12.38a130.86,130.86,0,0,0,10.76-13.6,129.86,129.86,0,0,0,16.64-2.56C96.61,106.58,95.59,117.26,90.6,120.17Zm5.69-33.95a130.42,130.42,0,0,0-6.14-16,130.42,130.42,0,0,0,6.14-16c14.42,4,23.13,10.18,23.13,16S110.71,82.25,96.29,86.22Z"/><path class="cls-3" d="M106.36,70.46l-1.53.14a50.71,50.71,0,0,0-45.28,43.06A39.08,39.08,0,0,0,59.1,121a39.25,39.25,0,0,0,.45,7.37,50.79,50.79,0,0,0,34.6,40.86,53.57,53.57,0,0,0,10.68,2.22c1.53.16,8.15.16,9.69,0a51.41,51.41,0,0,0,18.22-5.33c.87-.45,1-.57.92-.67s-3.79-5-8.24-11l-8.09-10.93-10.13-15c-5.58-8.25-10.16-15-10.2-15s-.08,6.65-.1,14.79c0,14.25,0,14.82-.22,15.16a1.8,1.8,0,0,1-.87.89c-.32.16-.59.19-2.09.19H92l-.45-.28a1.77,1.77,0,0,1-.66-.73l-.21-.44,0-19.82,0-19.84.3-.38a2.74,2.74,0,0,1,.74-.61c.4-.19.56-.21,2.27-.21,2,0,2.35.07,2.88.65.14.16,5.63,8.42,12.2,18.38s15.54,23.55,20,30.22l8,12.14.4-.27a52.3,52.3,0,0,0,10.4-9.12,50.33,50.33,0,0,0,11.9-25.85,38.42,38.42,0,0,0,.45-7.37,38.25,38.25,0,0,0-.45-7.36,50.77,50.77,0,0,0-34.6-40.87,52.51,52.51,0,0,0-10.53-2.2c-.94-.1-7.48-.21-8.3-.13Zm20.7,30.59a2,2,0,0,1,1,1.17c.08.25.1,5.75.08,18.14l0,17.78L125,133.33l-3.15-4.8V115.6c0-8.35,0-13,.1-13.28a2,2,0,0,1,1-1.24c.41-.21.55-.23,2.11-.23s1.72,0,2,.2Z"/></g></g></svg>