<svg xmlns="http://www.w3.org/2000/svg" viewBox="0 0 123.37 88.52"><defs><style>.cls-1{fill:#0091e2;}</style></defs><g id="Layer_2" data-name="Layer 2"><g id="Layer_2-2" data-name="Layer 2"><path class="cls-1" d="M122.17,33.47c-.34-.28-3.43-2.63-10.07-2.63a31.62,31.62,0,0,0-5.21.46c-1.26-8.76-8.52-13-8.81-13.22l-1.77-1-1.15,1.66A24.24,24.24,0,0,0,92,26a17.36,17.36,0,0,0,2.06,13.68c-3,1.72-8,2.12-9,2.17H3.84A3.83,3.83,0,0,0,0,45.72,57.55,57.55,0,0,0,3.56,66.6c2.8,7.33,7,12.76,12.35,16.08C22,86.4,31.88,88.52,43,88.52a82.67,82.67,0,0,0,15-1.38A61.86,61.86,0,0,0,77.77,80,54.3,54.3,0,0,0,91.16,69c6.46-7.27,10.3-15.4,13.1-22.61h1.14c7,0,11.39-2.8,13.79-5.2a15.2,15.2,0,0,0,3.67-5.38l.51-1.49Z"/><path class="cls-1" d="M11.39,39.54H22.27a1,1,0,0,0,1-1V28.84a1,1,0,0,0-1-1H11.39a1,1,0,0,0-1,1v9.73A1,1,0,0,0,11.39,39.54Zm15,0H37.26a1,1,0,0,0,1-1V28.84a1,1,0,0,0-1-1H26.39a1,1,0,0,0-1,1v9.73a1,1,0,0,0,1,1m15.27,0H52.53a1,1,0,0,0,1-1V28.84a1,1,0,0,0-1-1H41.66a1,1,0,0,0-1,1v9.73A.93.93,0,0,0,41.66,39.54Zm15.05,0H67.58a1,1,0,0,0,1-1V28.84a1,1,0,0,0-1-1H56.71a1,1,0,0,0-1,1v9.73A1,1,0,0,0,56.71,39.54ZM26.39,25.63H37.26a1,1,0,0,0,1-1V14.93a1,1,0,0,0-1-1H26.39a1,1,0,0,0-1,1v9.73a1,1,0,0,0,1,1m15.27,0H52.53a1,1,0,0,0,1-1V14.93a1,1,0,0,0-1-1H41.66a1,1,0,0,0-1,1v9.73a1,1,0,0,0,1,1m15.05,0H67.58a1,1,0,0,0,1-1V14.93a1,1,0,0,0-1-1H56.71a1,1,0,0,0-1,1v9.73a1,1,0,0,0,1,1m0-14H67.58a1,1,0,0,0,1-1V1a1,1,0,0,0-1-1H56.71a1,1,0,0,0-1,1V10.7a1,1,0,0,0,1,1M71.87,39.54H82.75a1,1,0,0,0,1-1V28.84a1,1,0,0,0-1-1H71.87a1,1,0,0,0-1,1v9.73a1,1,0,0,0,1,1"/></g></g></svg>