<svg xmlns="http://www.w3.org/2000/svg" viewBox="0 0 141.14 158.59"><defs><style>.cls-1{fill:#e535ab;fill-rule:evenodd;}</style></defs><g id="Layer_2" data-name="Layer 2"><g id="Layer_2-2" data-name="Layer 2"><path class="cls-1" d="M84.12,18.17,116.73,37a14.38,14.38,0,0,1,3.21-2.54A14.14,14.14,0,0,1,134.07,59a13.82,13.82,0,0,1-3.77,1.5V98.13a14.13,14.13,0,1,1-13.9,23.16L84,140a13.77,13.77,0,0,1,.71,4.45,14.13,14.13,0,1,1-27.69-4l-32.6-18.83a14.14,14.14,0,1,1-17.3-22,14.34,14.34,0,0,1,3.73-1.49V60.46A14,14,0,0,1,7.07,59,14.14,14.14,0,0,1,21.2,34.46,14.51,14.51,0,0,1,24.4,37L57,18.15a14.13,14.13,0,1,1,27.1,0ZM80.72,24l32.69,18.88a14.11,14.11,0,0,0,10.17,17.58V98.15l-.55.14L80.34,24.35l.38-.37Zm-19.91.39L18.12,98.3l-.56-.15V60.43a14.12,14.12,0,0,0,10.17-17.6L60.4,24l.41.4Zm13.71,3.35,42.68,73.92a14.46,14.46,0,0,0-2.49,3.18,14.27,14.27,0,0,0-1.49,3.72H27.92a14.27,14.27,0,0,0-1.49-3.72,14.12,14.12,0,0,0-2.49-3.16L66.63,27.71a14.18,14.18,0,0,0,7.89,0ZM81,134.93l32.48-18.75c-.1-.3-.19-.61-.26-.92H27.9a5.44,5.44,0,0,1-.15.54l32.64,18.84a14.15,14.15,0,0,1,20.63.29Z"/></g></g></svg>