<svg xmlns="http://www.w3.org/2000/svg" viewBox="0 0 106.73 103.93"><defs><style>.cls-1{fill:#326de6;}.cls-2{fill:#fff;}</style></defs><g id="Layer_2" data-name="Layer 2"><g id="Layer_2-2" data-name="Layer 2"><path class="cls-1" d="M34.08,102.28a8.15,8.15,0,0,1-6.42-3.11l-24.15-30a8.09,8.09,0,0,1-1.59-7l8.62-37.47A8.16,8.16,0,0,1,15,19.05L50,2.35a8.18,8.18,0,0,1,7.18,0L92.05,19a8.12,8.12,0,0,1,4.48,5.59L105.16,62a8.32,8.32,0,0,1-1.59,7l-24.15,30A8.33,8.33,0,0,1,73,102.21l-38.92.07Z"/><path class="cls-2" d="M53.47,3.24a6.81,6.81,0,0,1,2.83.62L91.22,20.5A6.68,6.68,0,0,1,94.81,25l8.63,37.48a6.45,6.45,0,0,1-1.32,5.66L78,98.14a6.58,6.58,0,0,1-5.18,2.48H34.08a6.6,6.6,0,0,1-5.18-2.48l-24.15-30a6.87,6.87,0,0,1-1.31-5.66L12.06,25a6.62,6.62,0,0,1,3.59-4.48L50.57,3.8a8.21,8.21,0,0,1,2.9-.56Zm0-3.24a10.47,10.47,0,0,0-4.28,1L14.27,17.67a9.76,9.76,0,0,0-5.38,6.69L.26,61.84a9.8,9.8,0,0,0,1.93,8.42l24.16,30A9.75,9.75,0,0,0,34,103.93H72.72a9.79,9.79,0,0,0,7.67-3.65l24.15-30a9.75,9.75,0,0,0,1.93-8.42L97.85,24.36a9.77,9.77,0,0,0-5.39-6.69L57.68,1A9.91,9.91,0,0,0,53.47,0Z"/><path class="cls-2" d="M88.46,59.49h-.07c-.07,0-.14,0-.14-.07s-.27-.07-.41-.07a9.3,9.3,0,0,0-1.31-.14,2.52,2.52,0,0,1-.69-.07h-.07A17.46,17.46,0,0,1,82,58.52a1.33,1.33,0,0,1-.76-.76c0-.06-.07-.06-.07-.13l-.89-.28a27.22,27.22,0,0,0-.49-9.73,28.31,28.31,0,0,0-3.86-9l.69-.62v-.14a1.6,1.6,0,0,1,.34-1,20.39,20.39,0,0,1,3.11-2.14c.21-.13.41-.2.62-.34a10.21,10.21,0,0,0,1.17-.69c.07-.07.21-.14.35-.28s.14-.07.14-.13a2.32,2.32,0,0,0,.48-3.11,2,2,0,0,0-1.59-.76,2.62,2.62,0,0,0-1.52.55l-.13.14c-.14.07-.21.21-.35.28-.34.34-.62.62-.9,1a2.74,2.74,0,0,1-.48.49,17.75,17.75,0,0,1-2.76,2.48,1.1,1.1,0,0,1-.62.21.83.83,0,0,1-.41-.07H74l-.83.55a33,33,0,0,0-2.83-2.62,27.6,27.6,0,0,0-14.42-5.73l-.07-.9-.14-.13a1.46,1.46,0,0,1-.55-.9,25.06,25.06,0,0,1,.2-3.73v-.07a2.42,2.42,0,0,1,.14-.69c.07-.41.14-.83.21-1.31v-.62a2.14,2.14,0,1,0-4.28,0v.55a4,4,0,0,0,.21,1.31c.07.21.07.42.13.69v.07A17.59,17.59,0,0,1,52,24.57a1.46,1.46,0,0,1-.55.9l-.14.13-.07.9a36.68,36.68,0,0,0-3.72.55A26.69,26.69,0,0,0,33.8,34.78l-.69-.48H33c-.13,0-.27.07-.41.07a1.1,1.1,0,0,1-.62-.21,18,18,0,0,1-2.76-2.55,2.8,2.8,0,0,0-.49-.48,9.91,9.91,0,0,0-.89-1c-.07-.07-.21-.14-.35-.28s-.14-.07-.14-.14a2.43,2.43,0,0,0-1.51-.55,2,2,0,0,0-1.59.76,2.32,2.32,0,0,0,.48,3.11c.07,0,.07.07.14.07s.21.2.34.27a9,9,0,0,0,1.18.69,2.78,2.78,0,0,1,.62.35,19.77,19.77,0,0,1,3.1,2.14,1.25,1.25,0,0,1,.35,1v.14l.69.62a2.64,2.64,0,0,0-.35.55A26.87,26.87,0,0,0,26.9,57.14l-.9.28c0,.07-.07.07-.07.14a1.58,1.58,0,0,1-.76.76,17.75,17.75,0,0,1-3.72.62h-.07a2.32,2.32,0,0,0-.69.07,10.74,10.74,0,0,0-1.31.13c-.14,0-.28.07-.42.07a.24.24,0,0,0-.2.07A2.26,2.26,0,0,0,17,61.84a2.13,2.13,0,0,0,2.21,1.58,1.46,1.46,0,0,0,.55-.07c.07,0,.14,0,.14-.06s.28-.07.41-.07a6.64,6.64,0,0,0,1.25-.49c.2-.07.41-.2.62-.27h.07a16.6,16.6,0,0,1,3.59-1h.13a1.53,1.53,0,0,1,.9.35c.07,0,.07.07.14.07l1-.14a26.67,26.67,0,0,0,12,15l-.41.9c0,.07.07.07.07.14a1.43,1.43,0,0,1,.14,1.1,20,20,0,0,1-1.8,3.25v.07c-.14.2-.27.34-.41.55s-.48.69-.76,1.1a1.53,1.53,0,0,0-.21.35.24.24,0,0,1-.07.14,2.18,2.18,0,0,0,.9,3,1.82,1.82,0,0,0,.83.21,2.48,2.48,0,0,0,2.07-1.31.24.24,0,0,1,.07-.14,1.6,1.6,0,0,1,.2-.34A13.13,13.13,0,0,0,41,84.4l.21-.62a15.7,15.7,0,0,1,1.45-3.45,1.79,1.79,0,0,1,.89-.62c.07,0,.07,0,.14-.07l.48-.9a26.85,26.85,0,0,0,9.67,1.8,25.17,25.17,0,0,0,6-.69,30,30,0,0,0,3.59-1l.41.76c.07,0,.07,0,.14.07a1.3,1.3,0,0,1,.9.62,24.91,24.91,0,0,1,1.45,3.45v.07l.2.62a8.75,8.75,0,0,0,.42,1.25,3.79,3.79,0,0,1,.2.34.24.24,0,0,0,.07.14,2.36,2.36,0,0,0,2.07,1.31,1.79,1.79,0,0,0,.83-.21,2,2,0,0,0,1-1.24A2.45,2.45,0,0,0,71,84.27c0-.07-.07-.07-.07-.14a1.53,1.53,0,0,0-.21-.35,5.66,5.66,0,0,0-.76-1.1c-.13-.21-.27-.35-.41-.55v-.07a15.27,15.27,0,0,1-1.79-3.25,2,2,0,0,1,.06-1.1c0-.07.07-.07.07-.14l-.34-.83a27.38,27.38,0,0,0,12-15.11l.83.14c.06,0,.06-.07.13-.07a1.78,1.78,0,0,1,.9-.35h.14a16.76,16.76,0,0,1,3.59,1h.07c.2.07.41.2.62.27a6.54,6.54,0,0,0,1.24.49c.14,0,.28.07.41.07a.26.26,0,0,1,.21.07,1.75,1.75,0,0,0,.55.06,2.32,2.32,0,0,0,2.21-1.58,2.65,2.65,0,0,0-2-2.28ZM56.51,56.11l-3,1.45-3-1.45-.76-3.25,2.07-2.62h3.39l2.07,2.62-.69,3.25Zm18-7.18a21.79,21.79,0,0,1,.48,7l-10.56-3a1.87,1.87,0,0,1-1.31-2.2,1.59,1.59,0,0,1,.42-.76l8.35-7.53a22.3,22.3,0,0,1,2.62,6.56Zm-5.94-10.7-9,6.42a1.83,1.83,0,0,1-2.41-.41,1.56,1.56,0,0,1-.35-.76l-.62-11.25a21,21,0,0,1,12.42,6Zm-20-5.66c.76-.13,1.45-.27,2.21-.41l-.62,11A1.89,1.89,0,0,1,48.29,45a1.59,1.59,0,0,1-.82-.21l-9.18-6.56a21.08,21.08,0,0,1,10.28-5.66ZM35,42.37l8.22,7.32a1.82,1.82,0,0,1,.2,2.55,1.35,1.35,0,0,1-.82.56l-10.7,3.1A22.23,22.23,0,0,1,35,42.37ZM33.11,61.08l11-1.87A1.88,1.88,0,0,1,46,60.66,2,2,0,0,1,46,61.77L41.74,71.91a21.74,21.74,0,0,1-8.63-10.83ZM58.3,74.81a22.21,22.21,0,0,1-4.83.55,23.37,23.37,0,0,1-7-1.1L52,64.39a1.81,1.81,0,0,1,2.21-.48,2.86,2.86,0,0,1,.83.76l5.31,9.59c-.62.2-1.31.34-2,.55Zm13.46-9.59a21.82,21.82,0,0,1-6.63,6.69L60.79,61.49a1.85,1.85,0,0,1,1-2.14,2.19,2.19,0,0,1,1-.21l11,1.87a13.69,13.69,0,0,1-2,4.21Z"/></g></g></svg>