<svg xmlns="http://www.w3.org/2000/svg" viewBox="0 0 118.89 118.91"><defs><style>.cls-1{fill:#fff;}</style></defs><g id="Layer_2" data-name="Layer 2"><g id="Layer_2-2" data-name="Layer 2"><path class="cls-1" d="M55.55,0c-.25,0-1.07.11-1.8.16A59.64,59.64,0,0,0,11,24.83a58.88,58.88,0,0,0-10.5,26A46.07,46.07,0,0,0,0,59.47a46.13,46.13,0,0,0,.53,8.66,59.71,59.71,0,0,0,40.67,48,63.1,63.1,0,0,0,12.55,2.6,108.19,108.19,0,0,0,11.39,0,60,60,0,0,0,21.42-6.26c1-.52,1.22-.66,1.08-.78s-4.45-5.92-9.68-13L68.45,85.9,56.54,68.27c-6.55-9.7-11.95-17.62-12-17.62s-.1,7.82-.12,17.38c0,16.75,0,17.42-.25,17.82a2.17,2.17,0,0,1-1,1.06c-.37.18-.69.22-2.45.22h-2l-.53-.34a2.11,2.11,0,0,1-.78-.85l-.25-.52,0-23.3,0-23.32.36-.45a3.3,3.3,0,0,1,.86-.71c.48-.23.66-.25,2.67-.25,2.37,0,2.77.09,3.39.76.17.19,6.62,9.9,14.34,21.61S77.08,87.44,82.26,95.29l9.42,14.26.47-.32a61,61,0,0,0,12.22-10.71,59.24,59.24,0,0,0,14-30.39,45.3,45.3,0,0,0,.53-8.66,45.24,45.24,0,0,0-.53-8.66,59.7,59.7,0,0,0-40.67-48A62.41,62.41,0,0,0,65.32.18C64.2.07,56.52-.06,55.55,0ZM79.89,36a2.32,2.32,0,0,1,1.17,1.37c.1.3.12,6.77.1,21.33l0,20.9-3.68-5.65-3.7-5.65V53.1c0-9.82.05-15.34.12-15.61A2.33,2.33,0,0,1,75,36c.48-.25.65-.27,2.47-.27s2,0,2.41.23Z"/></g></g></svg>