<svg xmlns="http://www.w3.org/2000/svg" viewBox="0 0 504 70.33"><defs><style>.cls-1{fill:#b3b3b3;}</style></defs><g id="Layer_2" data-name="Layer 2"><g id="Layer_2-2" data-name="Layer 2"><path class="cls-1" d="M87.85,70.33H0a43.91,43.91,0,0,1,23.33-38.8,22.49,22.49,0,1,1,41.19,0A43.91,43.91,0,0,1,87.85,70.33Z"/><path class="cls-1" d="M157.21,70.33H69.36a43.91,43.91,0,0,1,23.33-38.8,22.49,22.49,0,1,1,41.19,0A43.91,43.91,0,0,1,157.21,70.33Z"/><path class="cls-1" d="M226.57,70.33H138.72a43.91,43.91,0,0,1,23.33-38.8,22.49,22.49,0,1,1,41.19,0A43.91,43.91,0,0,1,226.57,70.33Z"/><path class="cls-1" d="M295.93,70.33H208.07a43.92,43.92,0,0,1,23.34-38.8,22.49,22.49,0,1,1,41.18,0A43.92,43.92,0,0,1,295.93,70.33Z"/><path class="cls-1" d="M365.28,70.33H277.43a43.91,43.91,0,0,1,23.33-38.8,22.49,22.49,0,1,1,41.19,0A43.91,43.91,0,0,1,365.28,70.33Z"/><path class="cls-1" d="M434.64,70.33H346.79a43.91,43.91,0,0,1,23.33-38.8,22.49,22.49,0,1,1,41.19,0A43.91,43.91,0,0,1,434.64,70.33Z"/><path class="cls-1" d="M504,70.33H416.15a43.91,43.91,0,0,1,23.33-38.8,22.49,22.49,0,1,1,41.19,0A43.91,43.91,0,0,1,504,70.33Z"/></g></g></svg>