<svg xmlns="http://www.w3.org/2000/svg" viewBox="0 0 560 78.15"><defs><style>.cls-1{fill:#e6e6e6;}</style></defs><title>peopleFront</title><g id="Layer_2" data-name="Layer 2"><g id="Layer_2-2" data-name="Layer 2"><path class="cls-1" d="M97.61,78.15H0A48.78,48.78,0,0,1,25.93,35a25,25,0,1,1,45.76,0A48.79,48.79,0,0,1,97.61,78.15Z"/><path class="cls-1" d="M174.68,78.15H77.06A48.8,48.8,0,0,1,103,35a25,25,0,1,1,45.76,0A48.78,48.78,0,0,1,174.68,78.15Z"/><path class="cls-1" d="M251.74,78.15H154.13A48.79,48.79,0,0,1,180.05,35a25,25,0,1,1,45.77,0A48.79,48.79,0,0,1,251.74,78.15Z"/><path class="cls-1" d="M328.81,78.15H231.19A48.78,48.78,0,0,1,257.12,35a25,25,0,1,1,45.76,0A48.78,48.78,0,0,1,328.81,78.15Z"/><path class="cls-1" d="M405.87,78.15H308.26A48.79,48.79,0,0,1,334.18,35,25,25,0,1,1,380,35,48.79,48.79,0,0,1,405.87,78.15Z"/><path class="cls-1" d="M482.94,78.15H385.32A48.78,48.78,0,0,1,411.25,35,25,25,0,1,1,457,35,48.8,48.8,0,0,1,482.94,78.15Z"/><path class="cls-1" d="M560,78.15H462.39A48.79,48.79,0,0,1,488.31,35a25,25,0,1,1,45.76,0A48.78,48.78,0,0,1,560,78.15Z"/></g></g></svg>