<svg xmlns="http://www.w3.org/2000/svg" viewBox="0 0 403.2 56.27"><defs><style>.cls-1{fill:gray;}</style></defs><g id="Layer_2" data-name="Layer 2"><g id="Layer_2-2" data-name="Layer 2"><path class="cls-1" d="M70.28,56.27H0A35.13,35.13,0,0,1,18.67,25.22,17.8,17.8,0,0,1,17.15,18a18,18,0,1,1,34.47,7.23A35.14,35.14,0,0,1,70.28,56.27Z"/><path class="cls-1" d="M125.77,56.27H55.49A35.14,35.14,0,0,1,74.15,25.22a18,18,0,1,1,32.95,0A35.13,35.13,0,0,1,125.77,56.27Z"/><path class="cls-1" d="M181.26,56.27H111a35.13,35.13,0,0,1,18.67-31.05A17.8,17.8,0,0,1,128.12,18a18,18,0,1,1,34.47,7.23A35.15,35.15,0,0,1,181.26,56.27Z"/><path class="cls-1" d="M236.74,56.27H166.46a35.13,35.13,0,0,1,18.67-31.05A17.8,17.8,0,0,1,183.61,18a18,18,0,0,1,36,0,17.8,17.8,0,0,1-1.52,7.23A35.13,35.13,0,0,1,236.74,56.27Z"/><path class="cls-1" d="M292.23,56.27H221.94a35.15,35.15,0,0,1,18.67-31.05,18,18,0,1,1,32.95,0A35.13,35.13,0,0,1,292.23,56.27Z"/><path class="cls-1" d="M347.71,56.27H277.43A35.13,35.13,0,0,1,296.1,25.22,17.8,17.8,0,0,1,294.58,18a18,18,0,1,1,34.47,7.23A35.14,35.14,0,0,1,347.71,56.27Z"/><path class="cls-1" d="M403.2,56.27H332.92a35.14,35.14,0,0,1,18.66-31.05,18,18,0,1,1,32.95,0A35.13,35.13,0,0,1,403.2,56.27Z"/></g></g></svg>