<svg xmlns="http://www.w3.org/2000/svg" viewBox="0 0 146.07 130.9"><defs><style>.cls-1{fill:#39c1d7;}</style></defs><g id="Layer_2" data-name="Layer 2"><g id="Layer_2-2" data-name="Layer 2"><circle class="cls-1" cx="73.03" cy="65.45" r="13.28"/><path class="cls-1" d="M146.07,65.45c0-10.2-12.28-19-31.34-24.28C119.63,22,118.12,7,109.37,1.85c-3.45-2-7.64-2.38-12.45-1.1C89.68,2.69,81.38,8.36,73,16.68,64.69,8.36,56.39,2.69,49.15.75c-4.81-1.29-9-.92-12.45,1.1C27.94,7,26.44,22,31.33,41.17,12.28,46.43,0,55.25,0,65.45s12.28,19,31.33,24.28c-4.89,19.15-3.39,34.21,5.37,39.32a13.9,13.9,0,0,0,7.12,1.85,20.73,20.73,0,0,0,5.33-.75c7.24-1.94,15.54-7.61,23.88-15.93,8.35,8.32,16.65,14,23.89,15.93a20.67,20.67,0,0,0,5.33.75,13.8,13.8,0,0,0,7.12-1.85c8.75-5.11,10.26-20.17,5.36-39.32C133.79,84.47,146.07,75.65,146.07,65.45ZM98.4,6.25a14.77,14.77,0,0,1,3.82-.56,8.34,8.34,0,0,1,4.28,1.07c5.87,3.43,7.06,16,2.69,33a152,152,0,0,0-19.56-3A155.1,155.1,0,0,0,77,20.8C84.6,13.16,92.08,7.94,98.4,6.25Zm-5,71.15c-2.24,3.92-4.59,7.67-7,11.27q-6.44.48-13.4.49t-13.39-.49c-2.42-3.6-4.77-7.35-7-11.27s-4.38-8-6.24-12q2.79-5.85,6.24-12c2.24-3.92,4.59-7.67,7-11.27q6.44-.48,13.39-.49t13.4.49c2.41,3.6,4.77,7.35,7,11.27s4.38,8,6.24,12Q96.89,71.32,93.44,77.4Zm9.27-5.23a141.71,141.71,0,0,1,4.93,13.44c-4.32,1-9,1.76-14,2.36,1.59-2.52,3.17-5.09,4.69-7.75S101.35,74.84,102.71,72.17ZM73,106a145,145,0,0,1-9.22-11.34q4.53.22,9.22.23c3.14,0,6.21-.08,9.23-.23A142.8,142.8,0,0,1,73,106ZM52.38,88c-5-.6-9.64-1.4-14-2.36a141.71,141.71,0,0,1,4.93-13.44q2,4,4.33,8C49.21,82.88,50.78,85.45,52.38,88Zm-9-29.24a141.71,141.71,0,0,1-4.93-13.44,141,141,0,0,1,14-2.36c-1.6,2.52-3.17,5.09-4.69,7.75S44.72,56.06,43.36,58.73ZM73,24.94a142.8,142.8,0,0,1,9.23,11.34c-3-.15-6.09-.23-9.23-.23s-6.2.08-9.22.23A145,145,0,0,1,73,24.94ZM98.38,50.68c-1.52-2.66-3.1-5.23-4.69-7.75,5,.6,9.63,1.4,14,2.36a141.71,141.71,0,0,1-4.93,13.44C101.35,56.06,99.92,53.38,98.38,50.68ZM39.57,6.76a8.37,8.37,0,0,1,4.28-1.07,14.77,14.77,0,0,1,3.82.56C54,7.94,61.47,13.16,69.09,20.8a153.76,153.76,0,0,0-12.65,16,150.71,150.71,0,0,0-19.57,3C32.5,22.73,33.7,10.19,39.57,6.76ZM5.69,65.45c0-6.82,10.25-14.11,27.19-18.78A155.18,155.18,0,0,0,40.1,65.45a155.18,155.18,0,0,0-7.22,18.78C15.94,79.56,5.69,72.27,5.69,65.45Zm42,59.2c-3.28.88-6,.71-8.1-.51-5.87-3.43-7.06-16-2.7-33a150.71,150.71,0,0,0,19.57,3,152.6,152.6,0,0,0,12.65,16C61.47,117.74,54,123,47.67,124.65Zm58.83-.51c-2.09,1.22-4.82,1.39-8.1.51C92.08,123,84.6,117.74,77,110.1a154,154,0,0,0,12.65-16,152,152,0,0,0,19.56-3C113.56,108.17,112.37,120.71,106.5,124.14Zm6.68-39.91A151.93,151.93,0,0,0,106,65.45a151.93,151.93,0,0,0,7.22-18.78c16.95,4.67,27.2,12,27.2,18.78S130.13,79.56,113.18,84.23Z"/></g></g></svg>