<svg xmlns="http://www.w3.org/2000/svg" viewBox="0 0 507.94 887.64"><defs><style>.cls-1{fill:#003147;}</style></defs><title>silhouette</title><g id="Layer_2" data-name="Layer 2"><g id="Layer_2-2" data-name="Layer 2"><path class="cls-1" d="M0,474c1.93-12,4-24.08,5.77-36.15,2.49-16.68,3.91-33.57,7.41-50C18.9,361,28.41,335.35,43.59,312.38c3.57-5.4,10.28-9.53,16.42-12.23,9.55-4.19,17.65-9.52,24.32-17.6,4.42-5.37,10.31-9.5,15.1-14.6,8.62-9.18,11.15-18,2.34-30.19C93.64,226.54,87.89,213.6,81,201.48c-2.36-4.15-5-8.1-7.49-12.21-3.05-5.14-7.16-10-8.6-15.61-1.12-4.31-.46-10.82,2.2-14.07,10.2-12.47,7.07-26.28,5.93-40.06a4.66,4.66,0,0,0-.65-2.06c-11.28-18-9-36.88-2.21-55.4,2.19-6,7.51-10.92,11.87-15.93,4.72-5.42,9.85-10.51,15.06-15.48,3.6-3.46,7.2-7.32,11.55-9.54C127.13,11.69,146,3.83,167.07,1.18c19.93-2.51,38.75-2,54.84,11.28,6.82,5.61,12.58,12.71,18.08,19.71,8.89,11.31,19.3,22,21.89,36.9,3,17.27,7.56,34.25,7,52.19-.39,11.51-.78,22.62-6.17,33-2.43,4.68-5,9.28-7.76,13.8-1.48,2.48-4.29,4.53-4.85,7.12-1.08,5-2.14,10.56-.84,15.22.56,2,7.11,3.42,10.85,3.24a115.69,115.69,0,0,1,53.54,10.11c2.78,1.25,6,2.69,7.71,5,6.2,8.11,14.91,12.67,23,18.42,11.48,8.19,21.59,18.28,32.39,27.44,7.14,6,14.28,12.12,21.75,17.74,8.27,6.21,16.88,12,25.4,17.83,17.71,12.19,27,30.17,32.45,50,16.79,61,33.55,122,48.79,183.43,4.14,16.68,5.57,35.07-8,50.11-2.84,3.14-4.71,7.34-6.41,11.31a94.41,94.41,0,0,1-32,40.38c-9.08,6.56-6.67,16.65-4.86,25.41,1.53,7.45,5,14.59,8.22,21.58,5.48,11.84,5.48,24,4.84,36.76a245,245,0,0,0,1.57,42.55c3.75,29.85,3.48,59.75,3.19,89.68,0,1.88-.85,3.75-1.23,5.64-2.41,12-4.78,24-7.24,35.94a40.51,40.51,0,0,1-1.55,4.71H71.12C67,880.27,63,872.89,58.87,865.54a64.21,64.21,0,0,1-8.4-31c-.12-6.92-3.48-13.79-5.46-20.67s-4.39-13.64-6-20.59c-2.07-8.87-3.77-17.84-5.1-26.84-.47-3.14-.41-7.18,1.19-9.65,6.62-10.21,5.64-20.75,4.1-32.06-1-7-.92-16,2.71-21.39,11.24-16.62,13.44-35.32,16-54.13,1.73-12.79.72-14.14-11.2-19-1.11-.45-2.26-.83-3.37-1.3-16.67-7.12-30.87-16.89-37.89-34.64-1.39-3.51-3.6-6.7-5.43-10Z"/></g></g></svg>