<?xml version="1.0" encoding="utf-8"?>
<!-- Generator: Adobe Illustrator 24.0.0, SVG Export Plug-In . SVG Version: 6.00 Build 0)  -->
<svg version="1.1" id="Capa_1" xmlns="http://www.w3.org/2000/svg" xmlns:xlink="http://www.w3.org/1999/xlink" x="0px" y="0px"
	 viewBox="0 0 56.8 56.8" style="enable-background:new 0 0 56.8 56.8;" xml:space="preserve">
<style type="text/css">
	.st0{fill:#003147;}
</style>
<g>
	<path class="st0" d="M20.9,23.1c-0.2,0-0.8,0.5-0.8,0.5C20.4,23.7,21.1,23.1,20.9,23.1z M21,23L21,23C20.9,23,20.9,23,21,23
		C21,23,21,23,21,23z M42.4,0.8c3.2,0,5.8,2.6,5.8,5.8s-2.6,5.8-5.8,5.8s-5.8-2.6-5.8-5.8S39.2,0.8,42.4,0.8z M7.5,25.7h1.6v-0.7
		H7.5c-0.4,0-0.7-0.1-0.8-0.2c-0.1-0.1,0-0.3,0-0.3l0-4.5H5.9v4.4c0,0.2-0.1,0.5,0.2,0.9C6.3,25.5,6.8,25.7,7.5,25.7z M56.7,36.3
		l-0.2-1.7c-0.8-6.7-0.9-6.9-0.5-18.7c0-0.4-0.3-0.8-0.7-0.8c-0.4,0-0.8,0.3-0.8,0.7c-0.3,11.9-0.3,12.2,0.6,19l0.2,1.7
		c0.2,1.6,0,2.8-0.5,3.2c-0.7,0.5-1.8,0.1-1.9,0c-5.5-1.7-12.4,1.8-12.6,1.9c-0.4,0.2-0.5,0.6-0.3,1c0.1,0.3,0.4,0.4,0.7,0.4
		c0.1,0,0.2,0,0.3-0.1c0,0,3.1-1.6,6.6-2.1v11.6h-3.1c-0.6,0-1.1,0.5-1.1,1.1c0,0.6,0.5,1.1,1.1,1.1h8.8c0.6,0,1.1-0.5,1.1-1.1
		c0-0.6-0.5-1.1-1.1-1.1h-2.9V40.7c0.7,0,1.4,0.2,2,0.4c0.1,0,1.9,0.8,3.3-0.2C56.6,40.1,57,38.5,56.7,36.3z M53.1,32.9
		c-0.1-4.9-1.7-9.6-1.9-14.5C51.1,11.2,40.1,11,40.1,18c-4.2,0.7-8.4,1.1-12.6,0.9c-3.9-0.2-3.9,5.8,0,6c4.5,0.2,8.9-0.2,13.3-0.9
		c0.5,2.6,1,5.2,1.2,7.9C32.8,35,27.7,42.7,26.4,52.5c0,0.1,0,0.1,0,0.2V31h5.7v-5.1H11.6c0-0.1,0-0.1,0-0.2c0-0.1,0-0.1,0-0.2
		c0-0.4,0.1-0.6,0.5-0.7c0.1,0,0.2,0,0.4,0v0.4H18c0.2,0,0.3,0.1,0.5,0.1c0.2,0,0.4-0.1,0.5-0.2c0.1-0.1,0.1-0.2,0.1-0.3
		c0-0.1,0-0.2,0.1-0.3c0.1-0.1,0.2-0.2,0.3-0.2c-0.1,0.2-0.2,0.5-0.2,0.7h6.3c0-1.2-1.4-2.2-3.1-2.2c-0.5,0-1,0.1-1.5,0.3
		c0.1,1-0.9,0.9-1.2,0.9c0,0.1-0.1,0.1-0.1,0.2c0,0,0,0,0,0c-0.2,0-0.4,0.1-0.5,0.2c-0.1,0.1-0.1,0.3-0.1,0.4c0,0.1,0,0.2,0,0.2
		C18.8,25,18.7,25,18.5,25v-0.9h-6.1v0.5c-0.2,0-0.3,0-0.4,0c-0.5,0.1-0.6,0.4-0.7,0.8c0,0.1,0,0.1,0,0.2c0,0.1,0,0.2,0,0.2H0V31
		h3.1v24.9h23.3v-2.5c0.4,3.8,6.9,3.5,7.5-0.9c1-7.6,5.4-12.6,12.8-14.3C49.8,38.6,53.2,36.9,53.1,32.9z M8.4,9l0.9,13.4l-2.5,0.2
		L6,9.2L8.4,9z"/>
</g>
</svg>
