<svg xmlns="http://www.w3.org/2000/svg" xmlns:xlink="http://www.w3.org/1999/xlink" viewBox="0 0 813.81 3112"><defs><style>.cls-1{isolation:isolate;}.cls-18,.cls-19,.cls-2,.cls-3,.cls-40,.cls-41{fill:#0071bc;}.cls-2{opacity:0.05;}.cls-10,.cls-11,.cls-12,.cls-13,.cls-14,.cls-15,.cls-16,.cls-18,.cls-19,.cls-2,.cls-20,.cls-21,.cls-22,.cls-23,.cls-24,.cls-25,.cls-26,.cls-27,.cls-28,.cls-3,.cls-30,.cls-32,.cls-33,.cls-34,.cls-35,.cls-36,.cls-37,.cls-38,.cls-39,.cls-4,.cls-5,.cls-6,.cls-7,.cls-8,.cls-9{mix-blend-mode:screen;}.cls-13,.cls-17,.cls-21,.cls-28,.cls-3,.cls-40{opacity:0.2;}.cls-20,.cls-31,.cls-4{opacity:0.7;}.cls-4{fill:url(#radial-gradient);}.cls-5{opacity:0.8;fill:url(#radial-gradient-2);}.cls-10,.cls-11,.cls-12,.cls-15,.cls-18,.cls-26,.cls-27,.cls-32,.cls-33,.cls-34,.cls-35,.cls-36,.cls-37,.cls-38,.cls-6,.cls-7,.cls-8,.cls-9{opacity:0.3;}.cls-6{fill:url(#radial-gradient-3);}.cls-7{fill:url(#radial-gradient-4);}.cls-8{fill:url(#radial-gradient-5);}.cls-9{fill:url(#radial-gradient-6);}.cls-10{fill:url(#radial-gradient-7);}.cls-11{fill:url(#radial-gradient-8);}.cls-12{fill:url(#radial-gradient-9);}.cls-13{fill:url(#radial-gradient-10);}.cls-14,.cls-16,.cls-22,.cls-29,.cls-41{opacity:0.1;}.cls-14{fill:url(#radial-gradient-11);}.cls-15{fill:url(#radial-gradient-12);}.cls-16{fill:url(#radial-gradient-13);}.cls-17,.cls-20,.cls-21,.cls-22,.cls-29,.cls-31,.cls-42{fill:none;stroke:#0071bc;stroke-miterlimit:10;}.cls-19,.cls-42{opacity:0.5;}.cls-23{fill:url(#radial-gradient-14);}.cls-24{fill:url(#radial-gradient-15);}.cls-25{fill:url(#radial-gradient-16);}.cls-26{fill:url(#radial-gradient-17);}.cls-27{fill:url(#radial-gradient-18);}.cls-28{fill:url(#radial-gradient-19);}.cls-30{fill:url(#radial-gradient-20);}.cls-32{fill:url(#radial-gradient-21);}.cls-33{fill:url(#radial-gradient-22);}.cls-34{fill:url(#radial-gradient-23);}.cls-35{fill:url(#radial-gradient-24);}.cls-36{fill:url(#radial-gradient-25);}.cls-37{fill:url(#radial-gradient-26);}.cls-38{fill:url(#radial-gradient-27);}.cls-39{opacity:0.15;fill:url(#radial-gradient-28);}</style><radialGradient id="radial-gradient" cx="432.23" cy="123" r="69" gradientUnits="userSpaceOnUse"><stop offset="0" stop-color="#c1272d"/><stop offset="1" stop-opacity="0"/></radialGradient><radialGradient id="radial-gradient-2" cx="336.23" cy="192" r="192" gradientUnits="userSpaceOnUse"><stop offset="0" stop-color="#f7931e"/><stop offset="0.1" stop-color="#ca7819" stop-opacity="0.82"/><stop offset="0.23" stop-color="#955912" stop-opacity="0.6"/><stop offset="0.36" stop-color="#683e0d" stop-opacity="0.42"/><stop offset="0.49" stop-color="#422708" stop-opacity="0.27"/><stop offset="0.62" stop-color="#251605" stop-opacity="0.15"/><stop offset="0.75" stop-color="#110a02" stop-opacity="0.07"/><stop offset="0.88" stop-color="#040201" stop-opacity="0.02"/><stop offset="1" stop-opacity="0"/></radialGradient><radialGradient id="radial-gradient-3" cx="461.23" cy="725" r="8" gradientUnits="userSpaceOnUse"><stop offset="0" stop-color="#fff"/><stop offset="1" stop-opacity="0"/></radialGradient><radialGradient id="radial-gradient-4" cx="580.23" cy="424" r="8" xlink:href="#radial-gradient-3"/><radialGradient id="radial-gradient-5" cx="572.23" cy="856" r="8" xlink:href="#radial-gradient-3"/><radialGradient id="radial-gradient-6" cx="453.23" cy="1083" r="8" xlink:href="#radial-gradient-3"/><radialGradient id="radial-gradient-7" cx="355.23" cy="1137" r="8" xlink:href="#radial-gradient-3"/><radialGradient id="radial-gradient-8" cx="411.23" cy="1827" r="8" xlink:href="#radial-gradient-3"/><radialGradient id="radial-gradient-9" cx="517.23" cy="381" r="4" xlink:href="#radial-gradient-3"/><radialGradient id="radial-gradient-10" cx="588.23" cy="358" r="4" xlink:href="#radial-gradient-3"/><radialGradient id="radial-gradient-11" cx="576.23" cy="770" r="9.6" xlink:href="#radial-gradient-3"/><radialGradient id="radial-gradient-12" cx="510.23" cy="387" r="4.8" xlink:href="#radial-gradient-3"/><radialGradient id="radial-gradient-13" cx="269.23" cy="507" r="30" xlink:href="#radial-gradient-3"/><radialGradient id="radial-gradient-14" cx="436.23" cy="1094" r="175" gradientUnits="userSpaceOnUse"><stop offset="0" stop-color="#662d91"/><stop offset="0.11" stop-color="#532577" stop-opacity="0.82"/><stop offset="0.31" stop-color="#36184c" stop-opacity="0.53"/><stop offset="0.5" stop-color="#1e0d2b" stop-opacity="0.3"/><stop offset="0.68" stop-color="#0e0613" stop-opacity="0.13"/><stop offset="0.86" stop-color="#030205" stop-opacity="0.03"/><stop offset="1" stop-opacity="0"/></radialGradient><radialGradient id="radial-gradient-15" cx="521.23" cy="2717" r="175" gradientUnits="userSpaceOnUse"><stop offset="0" stop-color="#f15a24"/><stop offset="0.02" stop-color="#e95723" stop-opacity="0.97"/><stop offset="0.18" stop-color="#ac401a" stop-opacity="0.71"/><stop offset="0.33" stop-color="#772d12" stop-opacity="0.5"/><stop offset="0.48" stop-color="#4d1d0b" stop-opacity="0.32"/><stop offset="0.63" stop-color="#2b1006" stop-opacity="0.18"/><stop offset="0.76" stop-color="#130703" stop-opacity="0.08"/><stop offset="0.89" stop-color="#050201" stop-opacity="0.02"/><stop offset="1" stop-opacity="0"/></radialGradient><radialGradient id="radial-gradient-16" cx="634.23" cy="1653" r="62" xlink:href="#radial-gradient-14"/><radialGradient id="radial-gradient-17" cx="609.23" cy="1235" r="8" xlink:href="#radial-gradient-3"/><radialGradient id="radial-gradient-18" cx="539.23" cy="1238" r="5" xlink:href="#radial-gradient-3"/><radialGradient id="radial-gradient-19" cx="630.23" cy="1161" r="16" xlink:href="#radial-gradient-3"/><radialGradient id="radial-gradient-20" cx="436.23" cy="2075" r="187" gradientUnits="userSpaceOnUse"><stop offset="0" stop-color="#9e005d"/><stop offset="0.15" stop-color="#770046" stop-opacity="0.75"/><stop offset="0.34" stop-color="#4c002d" stop-opacity="0.48"/><stop offset="0.52" stop-color="#2b0019" stop-opacity="0.27"/><stop offset="0.7" stop-color="#13000b" stop-opacity="0.12"/><stop offset="0.86" stop-color="#050003" stop-opacity="0.03"/><stop offset="1" stop-opacity="0"/></radialGradient><radialGradient id="radial-gradient-21" cx="468.23" cy="1927" r="8" xlink:href="#radial-gradient-3"/><radialGradient id="radial-gradient-22" cx="250.23" cy="2567" r="8" xlink:href="#radial-gradient-3"/><radialGradient id="radial-gradient-23" cx="246.23" cy="2917" r="12" xlink:href="#radial-gradient-3"/><radialGradient id="radial-gradient-24" cx="516.23" cy="2801" r="12" xlink:href="#radial-gradient-3"/><radialGradient id="radial-gradient-25" cx="286.23" cy="3100" r="12" xlink:href="#radial-gradient-3"/><radialGradient id="radial-gradient-26" cx="318.23" cy="2905" r="12" xlink:href="#radial-gradient-3"/><radialGradient id="radial-gradient-27" cx="498.23" cy="2059" r="8" xlink:href="#radial-gradient-3"/><radialGradient id="radial-gradient-28" cx="242.23" cy="1976" r="30" xlink:href="#radial-gradient-3"/></defs><title>trianglesShort</title><g class="cls-1"><g id="Layer_2" data-name="Layer 2"><g id="Layer_2-2" data-name="Layer 2"><path class="cls-2" d="M729.23,777.16l-191-57s23-39,23-36S729.23,777.16,729.23,777.16Z"/><polygon class="cls-3" points="336.23 132 202.23 175 269.23 650 336.23 132"/><circle class="cls-4" cx="432.23" cy="123" r="69"/><circle class="cls-5" cx="336.23" cy="192" r="192"/><circle class="cls-6" cx="461.23" cy="725" r="8"/><circle class="cls-7" cx="580.23" cy="424" r="8"/><circle class="cls-8" cx="572.23" cy="856" r="8"/><circle class="cls-9" cx="453.23" cy="1083" r="8"/><circle class="cls-10" cx="355.23" cy="1137" r="8"/><circle class="cls-11" cx="411.23" cy="1827" r="8"/><circle class="cls-12" cx="517.23" cy="381" r="4"/><circle class="cls-13" cx="588.23" cy="358" r="4"/><circle class="cls-14" cx="576.23" cy="770" r="9.6"/><circle class="cls-15" cx="510.23" cy="387" r="4.8"/><circle class="cls-16" cx="269.23" cy="507" r="30"/><path class="cls-2" d="M664.23,757c0,1-93,103-93,103l31-87Z"/><path class="cls-17" d="M689.73,389.5s-111,35-111,34,70,1,70,1Z"/><polygon class="cls-18" points="795.23 787 511.23 655 484.23 804 795.23 787"/><polygon class="cls-19" points="792.11 786.01 510.23 655 615.23 655 792.11 786.01"/><polygon class="cls-20" points="510.23 655 483.23 804 461.23 726 510.23 655"/><polygon class="cls-21" points="483.73 804.5 791.73 786.5 752.73 836.5 483.73 804.5"/><polygon class="cls-22" points="664.23 757 571.23 860 649.23 810 664.23 757"/><polygon class="cls-18" points="608.73 1234.5 451.73 1082.5 809.54 1029.04 608.73 1234.5"/><polygon class="cls-22" points="578.73 423.5 551.73 363.5 648.73 424.5 578.73 423.5"/><polygon class="cls-18" points="268.78 646.79 202.23 175 218.23 456 268.78 646.79"/><circle class="cls-23" cx="436.23" cy="1094" r="175"/><circle class="cls-24" cx="521.23" cy="2717" r="175"/><circle class="cls-25" cx="634.23" cy="1653" r="62"/><circle class="cls-26" cx="609.23" cy="1235" r="8"/><circle class="cls-27" cx="539.23" cy="1238" r="5"/><polygon class="cls-18" points="809.54 1029.04 355.23 1137 609.23 1235 809.54 1029.04"/><polygon class="cls-20" points="809.54 1029.04 355.23 1137 499.23 1029 809.54 1029.04"/><polygon class="cls-20" points="354.73 1136.5 608.73 1234.5 638.73 1307.5 354.73 1136.5"/><polygon class="cls-20" points="608.73 1234.5 809.54 1029.04 638.73 1307.5 608.73 1234.5"/><polygon class="cls-21" points="452.23 1083 609.23 1235 539.23 1238 452.23 1083"/><polygon class="cls-21" points="809.54 1029.04 608.73 1234.5 708.73 1265.5 809.54 1029.04"/><polygon class="cls-21" points="452.73 1082.5 809.54 1029.04 702.73 984.5 452.73 1082.5"/><polygon class="cls-18" points="446.73 1401.5 510.73 1447.5 361.73 1657.5 446.73 1401.5"/><circle class="cls-28" cx="630.23" cy="1161" r="16"/><polygon class="cls-22" points="709.23 1161 517.23 992 587.23 969 709.23 1161"/><polygon class="cls-29" points="709.73 1161.5 587.73 969.5 636.73 984.5 709.73 1161.5"/><polygon class="cls-29" points="516.73 540.5 481.73 529.5 587.73 518.5 516.73 540.5"/><polygon class="cls-29" points="516.73 991.5 517.73 1046.5 709.73 1161.5 516.73 991.5"/><circle class="cls-30" cx="436.23" cy="2075" r="187"/><polygon class="cls-18" points="3.23 1826 498.23 1961 332.23 2143 3.23 1826"/><polygon class="cls-20" points="332.23 2143 498.23 1961 498.23 2058 332.23 2143"/><polygon class="cls-31" points="3.73 1825.5 498.73 1960.5 409.73 1825.5 3.73 1825.5"/><polygon class="cls-17" points="3.73 1825.5 332.73 2142.5 212.73 2155.5 3.73 1825.5"/><polygon class="cls-18" points="292.23 1955 480.23 1861 468.23 1929 292.23 1955"/><polygon class="cls-22" points="480.23 1861 468.23 1929 492.73 1935.5 480.23 1861"/><polygon class="cls-18" points="291.73 1954.5 467.73 1928.5 492.73 1935.5 291.73 1954.5"/><circle class="cls-32" cx="468.23" cy="1927" r="8"/><circle class="cls-33" cx="250.23" cy="2567" r="8"/><circle class="cls-34" cx="246.23" cy="2917" r="12"/><circle class="cls-35" cx="516.23" cy="2801" r="12"/><circle class="cls-36" cx="286.23" cy="3100" r="12"/><circle class="cls-37" cx="318.23" cy="2905" r="12"/><circle class="cls-38" cx="498.23" cy="2059" r="8"/><circle class="cls-39" cx="242.23" cy="1976" r="30"/><polygon class="cls-40" points="544.23 2644 311.23 2493 286.23 3100 544.23 2644"/><polygon class="cls-41" points="516.23 2802 184.23 2593 318.23 2905 516.23 2802"/><polygon class="cls-31" points="516.23 2802 184.23 2593 250.23 2567 516.23 2802"/><polygon class="cls-31" points="318.23 2905 184.23 2593 199.23 2790 318.23 2905"/><polygon class="cls-31" points="515.73 2801.5 317.73 2904.5 438.73 2889.5 515.73 2801.5"/><polygon class="cls-42" points="543.73 2643.5 285.73 3099.5 509.73 2898.5 543.73 2643.5"/><polygon class="cls-31" points="310.73 2492.5 543.73 2643.5 507.73 2539.5 310.73 2492.5"/><polygon class="cls-31" points="310.73 2492.5 285.73 3099.5 246.73 2918.5 310.73 2492.5"/></g></g></g></svg>