<svg xmlns="http://www.w3.org/2000/svg" viewBox="0 0 110.39 110.39"><defs><style>.cls-1{fill:#007acc;}.cls-2{fill:#fff;}</style></defs><g id="Layer_2" data-name="Layer 2"><g id="Layer_2-2" data-name="Layer 2"><path class="cls-1" d="M0,55.19V0H110.39V110.39H0"/><path class="cls-2" d="M24.2,55.39v4.5H38.55v40.84H48.74V59.89H63.09V55.47A34.43,34.43,0,0,0,63,50.92c0-.09-8.75-.11-19.38-.11l-19.31.08v4.52l-.09,0Zm64.5-4.61a13.42,13.42,0,0,1,6.9,3.94,17.48,17.48,0,0,1,2.65,3.54c0,.16-4.78,3.39-7.68,5.19-.11.08-.55-.39-1-1.11a6.32,6.32,0,0,0-5.19-3.09c-3.31-.22-5.52,1.52-5.52,4.42a4.33,4.33,0,0,0,.5,2.09c.74,1.52,2.12,2.43,6.4,4.31,7.89,3.39,11.32,5.63,13.39,8.83a16.08,16.08,0,0,1,1.29,13.44c-1.76,4.61-6.07,7.73-12.22,8.75a35,35,0,0,1-8.42-.08,20.87,20.87,0,0,1-11.23-5.88,20,20,0,0,1-2.87-4.25l1.05-.67,4.14-2.4L74,86l.71,1a15.14,15.14,0,0,0,4.14,4c3.59,1.85,8.39,1.6,10.77-.55a4.16,4.16,0,0,0,1.46-3.32,4.26,4.26,0,0,0-.83-2.81c-.88-1.22-2.65-2.21-7.62-4.42-5.71-2.43-8.14-4-10.4-6.34a15.81,15.81,0,0,1-3-5.52,21.18,21.18,0,0,1-.16-7.1c1.18-5.52,5.35-9.38,11.31-10.48a26.84,26.84,0,0,1,8.39.27l0,.06Z"/></g></g></svg>